# xmcd
#
# Track frame offsets:
#        150
#        17530
#        36170
#        58740
#        84925
#        106290
#        128637
#        142555
#        156102
#        169835
#        184570
#        197712
#        208167
#        216395
#        244867
#        285430
#        301285
#        314385
#
# Disc length: 4450 seconds
#
# Revision: 2
# Processed by: cddbd v1.5.1PL0 Copyright (c) Steve Scherf et al.
# Submitted via: ExactAudioCopy v0.95a5
#
DISCID=f2116012
DTITLE=Various Artist - Luire Presents Soul Cologne
DYEAR=1900
DGENRE=Soul
TTITLE0=Curtis Mayfield - Tripping Out
TTITLE1=Dynasty - Adventures In The Land Of Music
TTITLE2=Makaveli (2Pac) - Me And My Girlfriend
TTITLE3=Bob James - Take Me To The Mardi Gras
TTITLE4=Taana Gardner - Heartbeat
TTITLE5=Average White Band - School Boy Crush
TTITLE6=The Emotions - Blind Alley
TTITLE7=The Chi-Lites - Are You My Woman? (Tell Me So)
TTITLE8=Barbara Acklin - Am I The Same Girl
TTITLE9=Al Green - Let's Stay Together
TTITLE10=The Stylistics - You Are Everything
TTITLE11=William Bell - I Forget To Be Your Lover
TTITLE12=Isaac Hayes - Bumpy's Lament
TTITLE13=Isaac Hayes - Make A Little Love To Me
TTITLE14=Isaac Hayes - (They Long To Be) Close To You
TTITLE15=The Newcomers - (Too Little In Common To Be Lovers) Too Much
TTITLE15=Going To Say Goodbye
TTITLE16=The Stylistics - Stop, Look, Listen (To Your Heart)
TTITLE17=Midnight Star - Slow Jam
EXTD=
EXTT0=
EXTT1=
EXTT2=
EXTT3=
EXTT4=
EXTT5=
EXTT6=
EXTT7=
EXTT8=
EXTT9=
EXTT10=
EXTT11=
EXTT12=
EXTT13=
EXTT14=
EXTT15=
EXTT16=
EXTT17=
PLAYORDER=
